<?xml version="1.0" encoding="utf-8"?>
<!-- Generator: Adobe Illustrator 16.0.3, SVG Export Plug-In . SVG Version: 6.00 Build 0)  -->
<!DOCTYPE svg PUBLIC "-//W3C//DTD SVG 1.1//EN" "http://www.w3.org/Graphics/SVG/1.1/DTD/svg11.dtd">
<svg version="1.1" id="Layer_1" xmlns="http://www.w3.org/2000/svg" xmlns:xlink="http://www.w3.org/1999/xlink" x="0px" y="0px"
	 width="2000px" height="2000px" viewBox="0 0 2000 2000" enable-background="new 0 0 2000 2000" xml:space="preserve">
<g>
	<path fill="#2C3E50" d="M1724.951,923.422c52.269,52.938,76.233,103.552,63.813,146.5c-10.322,35.686-44.694,62.094-97.595,79.518
		c-52.763,21.452-128.017,32.284-218.814,32.284c-146.884,0-334.299-28.272-532.511-85.571
		C518.956,974.474,208.941,768.035,247.405,635.038c10.586-36.598,46.554-63.768,101.77-81.462
		c14.491-5.587,30.557-10.433,48.136-14.505C273.507,554.336,190.771,594.66,172.19,658.92
		c-22.199,76.771,51.316,173.77,188.159,267.93L128.651,1563h172.05c18.464,0,33.99-5.523,46.58-15.879
		c12.589-10.346,21.111-22.136,25.598-34.452L442.537,1294H852.94l70.499,219.332c5.584,13.994,14.268,26.097,26.017,35.328
		c11.749,9.23,27.404,14.34,46.999,14.34h169.531l-128.911-354.055c18.609,4.555,37.08,9.012,55.408,13.063L1217.211,1563h198.906
		l106.587-291.602c180.292-2.994,305.019-45.923,328.372-126.705C1869.643,1080.506,1821.26,1002.305,1724.951,923.422z
		 M492.056,1140l37.038-114.893c81.304,40.973,173.413,79.753,273.283,114.282l0.207,0.61H492.056z"/>
</g>
<g>
	<linearGradient id="SVGID_1_" gradientUnits="userSpaceOnUse" x1="940.4771" y1="1028.332" x2="1134.8428" y2="494.3163">
		<stop  offset="0" style="stop-color:#FFFFFF"/>
		<stop  offset="0.0054" style="stop-color:#FAFDFE"/>
		<stop  offset="0.0509" style="stop-color:#D0ECF8"/>
		<stop  offset="0.1017" style="stop-color:#ABDDF2"/>
		<stop  offset="0.1573" style="stop-color:#8BCFED"/>
		<stop  offset="0.2187" style="stop-color:#6FC4E9"/>
		<stop  offset="0.2881" style="stop-color:#59BBE6"/>
		<stop  offset="0.3692" style="stop-color:#48B4E3"/>
		<stop  offset="0.4694" style="stop-color:#3DB0E1"/>
		<stop  offset="0.6099" style="stop-color:#36ADE0"/>
		<stop  offset="1" style="stop-color:#34ACE0"/>
	</linearGradient>
	<path fill="url(#SVGID_1_)" d="M1032.991,460.292c-12.04-8.944-27.567-14.292-46.579-14.292H809.326l225.377,616.627
		c75.399,19.112,149.575,33.917,220.258,44.329l-194.692-610.551C1054.102,481.863,1045.015,469.25,1032.991,460.292z"/>
	<linearGradient id="SVGID_2_" gradientUnits="userSpaceOnUse" x1="1451.8604" y1="1148.7041" x2="1721.2373" y2="408.5968">
		<stop  offset="0" style="stop-color:#FFFFFF"/>
		<stop  offset="0.0054" style="stop-color:#FAFDFE"/>
		<stop  offset="0.0509" style="stop-color:#D0ECF8"/>
		<stop  offset="0.1017" style="stop-color:#ABDDF2"/>
		<stop  offset="0.1573" style="stop-color:#8BCFED"/>
		<stop  offset="0.2187" style="stop-color:#6FC4E9"/>
		<stop  offset="0.2881" style="stop-color:#59BBE6"/>
		<stop  offset="0.3692" style="stop-color:#48B4E3"/>
		<stop  offset="0.4694" style="stop-color:#3DB0E1"/>
		<stop  offset="0.6099" style="stop-color:#36ADE0"/>
		<stop  offset="1" style="stop-color:#34ACE0"/>
	</linearGradient>
	<path fill="url(#SVGID_2_)" d="M1646.077,446c-18.464,0-34.136,5.776-46.999,15.559c-12.88,9.797-21.547,21.563-26.018,34.426
		l-198.777,624.484c34.068,2.602,66.924,3.961,98.071,3.961c41.453,0,76.405-2.148,105.832-5.941L1824.002,446H1646.077z"/>
	<linearGradient id="SVGID_3_" gradientUnits="userSpaceOnUse" x1="683.7056" y1="948.0771" x2="853.9691" y2="480.2818">
		<stop  offset="0" style="stop-color:#FFFFFF"/>
		<stop  offset="0.0054" style="stop-color:#FAFDFE"/>
		<stop  offset="0.0509" style="stop-color:#D0ECF8"/>
		<stop  offset="0.1017" style="stop-color:#ABDDF2"/>
		<stop  offset="0.1573" style="stop-color:#8BCFED"/>
		<stop  offset="0.2187" style="stop-color:#6FC4E9"/>
		<stop  offset="0.2881" style="stop-color:#59BBE6"/>
		<stop  offset="0.3692" style="stop-color:#48B4E3"/>
		<stop  offset="0.4694" style="stop-color:#3DB0E1"/>
		<stop  offset="0.6099" style="stop-color:#36ADE0"/>
		<stop  offset="1" style="stop-color:#34ACE0"/>
	</linearGradient>
	<path fill="url(#SVGID_3_)" d="M534.857,446L409.35,791.128c13.27,10.139,27.811,20.391,43.773,31.022
		c35.675,23.757,75.679,46.99,119.018,69.433l33.214-103.096c6.15-17.336,12.863-37.767,20.142-61.266
		c7.264-23.5,14.268-48.951,20.982-76.374c7.264,27.423,14.542,52.742,21.821,75.954c7.264,23.225,14.268,43.511,20.981,60.847
		l58.878,183.173c65.53,25.691,135.234,49.372,207.596,70.286c7.754,2.244,15.498,4.539,23.242,6.693L759.782,446H534.857z"/>
</g>
</svg>
